<svg width="24" height="24" viewBox="0 0 24 24" fill="none" xmlns="http://www.w3.org/2000/svg">
<path d="M9.75037 3.10439V8.81839C9.75037 9.11386 9.69218 9.40644 9.5791 9.67943C9.46603 9.95241 9.3003 10.2005 9.09137 10.4094L5.00037 14.5004M9.75037 3.10439C9.49937 3.12739 9.24937 3.15439 9.00037 3.18639M9.75037 3.10439C11.2471 2.9652 12.7536 2.9652 14.2504 3.10439M5.00037 14.5004L5.77037 14.3074C7.86337 13.7902 10.0722 14.0359 12.0004 15.0004C13.9286 15.9649 16.1374 16.2106 18.2304 15.6934L19.8004 15.3004M5.00037 14.5004L2.79837 16.7034C1.56537 17.9344 2.14737 20.0204 3.86537 20.3134C6.50937 20.7654 9.22737 21.0004 12.0004 21.0004C14.7266 21.0013 17.4479 20.7715 20.1354 20.3134C21.8524 20.0204 22.4344 17.9344 21.2024 16.7024L19.8004 15.3004M14.2504 3.10439V8.81839C14.2504 9.41539 14.4874 9.98839 14.9094 10.4094L19.8004 15.3004M14.2504 3.10439C14.5014 3.12739 14.7514 3.15439 15.0004 3.18639" stroke="#FAFAFA" stroke-width="1.5" stroke-linecap="round" stroke-linejoin="round"/>
</svg>
