<svg width="24" height="24" viewBox="0 0 24 24" fill="none" xmlns="http://www.w3.org/2000/svg">
<path d="M8.25 3V4.5M4.5 8.25H3M21 8.25H19.5M4.5 12H3M21 12H19.5M4.5 15.75H3M21 15.75H19.5M8.25 19.5V21M12 3V4.5M12 19.5V21M15.75 3V4.5M15.75 19.5V21M6.75 19.5H17.25C17.8467 19.5 18.419 19.2629 18.841 18.841C19.2629 18.419 19.5 17.8467 19.5 17.25V6.75C19.5 6.15326 19.2629 5.58097 18.841 5.15901C18.419 4.73705 17.8467 4.5 17.25 4.5H6.75C6.15326 4.5 5.58097 4.73705 5.15901 5.15901C4.73705 5.58097 4.5 6.15326 4.5 6.75V17.25C4.5 17.8467 4.73705 18.419 5.15901 18.841C5.58097 19.2629 6.15326 19.5 6.75 19.5ZM7.5 7.5H16.5V16.5H7.5V7.5Z" stroke="#FAFAFA" stroke-width="1.5" stroke-linecap="round" stroke-linejoin="round"/>
</svg>
