<svg xmlns="http://www.w3.org/2000/svg" width="18" height="18" fill="none"><g clip-path="url(#a)"><mask id="b" width="14" height="18" x="2" y="0" maskUnits="userSpaceOnUse" style="mask-type:luminance"><path fill="#fff" d="M15.5.5h-13v17h13V.5Z"/></mask><g mask="url(#b)"><mask id="c" width="14" height="18" x="2" y="0" maskUnits="userSpaceOnUse" style="mask-type:luminance"><path fill="#fff" d="M15.5.5h-13v17h13V.5Z"/></mask><g fill="#040403" mask="url(#c)"><path d="M3.459 7.963h1.415v-.692c0-.772.084-1.349.254-1.729.175-.38.492-.689.952-.925.465-.242 1.052-.363 1.759-.363.725 0 1.436.103 2.13.311L9.626 6.26a5.266 5.266 0 0 0-1.17-.139c-.368 0-.634.084-.798.251-.157.162-.235.476-.235.943v.648h1.904v1.911H7.422v7.272H4.874V9.874H3.459v-1.91Z"/><path d="M15.128 7.938H3.242v2.125h11.886V7.937Z"/></g><path fill="#040403" d="M9 9.928h1.446v.692c0 .772.087 1.348.26 1.729.18.38.504.688.973.924.476.242 1.076.363 1.799.363.742 0 1.468-.103 2.179-.31l-.353-1.695a5.5 5.5 0 0 1-1.196.138c-.377 0-.649-.083-.816-.25-.16-.162-.24-.476-.24-.942v-.649h1.946v-1.91h-1.946V.75h-2.606v7.27H9v1.91Z"/></g></g><defs><clipPath id="a"><path fill="#fff" d="M2.5.5h13v17h-13z"/></clipPath></defs></svg>