<svg width="20" height="29" viewBox="0 0 20 29" fill="none" xmlns="http://www.w3.org/2000/svg">
<g clip-path="url(#clip0_559_343)">
<path d="M9.50865 9.53565C10.0778 9.53565 10.3792 9.26778 10.3792 8.73209V5.58487C10.3792 5.04918 10.0778 4.71436 9.54213 4.71436C4.55344 4.71436 2.24324 7.45983 2.24324 11.9128H0.837023C0.301324 11.9128 0 12.2141 0 12.7498V15.8971C0 16.4328 0.301335 16.7341 0.837023 16.7341H2.24324V27.8164C2.24324 28.3521 2.54458 28.6534 3.08027 28.6534H6.42839C6.96408 28.6534 7.26541 28.352 7.26541 27.8164V16.7341H9.54213C10.0778 16.7341 10.3792 16.4328 10.3792 15.8971V12.7498C10.3792 12.2141 10.0778 11.9128 9.54213 11.9128H7.26541C7.26541 10.3057 8.13592 9.53565 9.50865 9.53565Z" fill="white"/>
<path d="M18.8996 19.1177C19.4687 19.1177 19.77 19.3856 19.77 19.9213V23.0685C19.77 23.6042 19.4688 23.939 18.9331 23.939C13.9444 23.939 11.6342 21.1936 11.6342 16.7406H10.228C9.69225 16.7406 9.39087 16.4392 9.39087 15.9035V12.7563C9.39087 12.2206 9.69214 11.9193 10.228 11.9193H11.6342V0.837008C11.6342 0.301309 11.9354 0 12.4712 0H15.8193C16.355 0 16.6563 0.301321 16.6563 0.837008V11.9193H18.9331C19.4688 11.9193 19.77 12.2206 19.77 12.7563V15.9035C19.77 16.4392 19.4688 16.7406 18.9331 16.7406H16.6563C16.6563 18.3477 17.5268 19.1177 18.8996 19.1177Z" fill="white"/>
</g>
<defs>
<clipPath id="clip0_559_343">
<rect width="19.7701" height="28.6533" fill="white"/>
</clipPath>
</defs>
</svg>
